<?xml version="1.0" standalone="no"?>
<!DOCTYPE svg PUBLIC "-//W3C//DTD SVG 20010904//EN" "http://www.w3.org/TR/2001/REC-SVG-20010904/DTD/svg10.dtd">
<svg version="1.0" xmlns="http://www.w3.org/2000/svg"
     width="512.000000pt" height="512.000000pt" viewBox="0 0 512.000000 512.000000"
     preserveAspectRatio="xMidYMid meet">
  <g transform="translate(0.000000,512.000000) scale(0.100000,-0.100000)" fill="#000000" stroke="none">
    <path d="M2330 5109 c-751 -73 -1407 -489 -1795 -1136 -115 -192 -222 -464
    -274 -698 -69 -309 -69 -721 0 -1030 52 -234 159 -506 274 -698 323 -539 843
    -925 1460 -1084 152 -39 300 -63 470 -76 166 -13 504 -1 655 23 639 102 1202
    446 1575 964 115 159 212 336 280 510 116 295 170 567 170 865 0 298 -54 570
    -170 865 -68 174 -165 351 -280 510 -373 518 -936 862 -1575 964 -126 20 -187
    24 -385 26 -132 2 -280 0 -330 -5z m645 -324 c636 -116 1161 -525 1418 -1105
    107 -242 162 -460 181 -725 53 -724 -281 -1416 -878 -1820 -227 -154 -500
    -266 -766 -314 -164 -30 -480 -37 -645 -16 -266 35 -536 130 -765 270 -597
    364 -955 1003 -955 1705 0 544 218 1055 615 1440 320 311 744 517 1185 575
    133 18 477 12 610 -10z"/>
    <path d="M2310 4574 c-593 -77 -1099 -422 -1382 -939 -115 -210 -178 -410
    -207 -655 -21 -182 -9 -445 26 -621 163 -802 798 -1395 1613 -1509 182 -25
    438 -25 620 0 815 114 1450 707 1613 1509 35 176 47 439 26 621 -29 245 -92
    445 -207 655 -157 287 -368 512 -637 679 -294 184 -620 282 -985 297 -120 5
    -195 2 -310 -10 -47 -5 -158 -19 -170 -27z m384 -309 c507 -76 937 -412 1140
    -891 82 -193 116 -365 116 -584 0 -219 -34 -391 -116 -584 -203 -479 -631
    -813 -1145 -890 -129 -19 -349 -19 -478 0 -514 77 -942 411 -1145 890 -82
    193 -116 365 -116 584 0 219 34 391 116 584 204 480 633 814 1144 890 138 20
    345 21 484 1z"/>
    <path d="M2355 4020 c-417 -67 -765 -333 -927 -713 -41 -95 -80 -237 -94
    -337 -28 -203 -7 -414 61 -607 96 -275 293 -510 545 -651 140 -79 271 -124
    429 -147 143 -21 367 -13 504 19 278 63 532 227 700 451 75 101 160 282 194
    415 34 132 44 218 43 370 0 198 -28 334 -101 490 -167 358 -485 619 -857 703
    -117 27 -378 30 -497 7z m369 -357 c290 -83 516 -309 599 -599 29 -101 31
    -115 31 -264 0 -149 -2 -163 -31 -264 -83 -290 -309 -516 -599 -599 -101 -29
    -115 -31 -264 -31 -149 0 -163 2 -264 31 -290 83 -516 309 -599 599 -29 101
    -31 115 -31 264 0 149 2 163 31 264 81 285 303 510 588 594 153 45 386 47 539
    5z"/>
    <path d="M2409 3516 c-73 -26 -106 -52 -153 -119 -115 -161 -45 -389 141 -456
    124 -44 265 0 339 107 105 152 37 367 -138 434 -66 26 -126 29 -189 10 -76
    -22 -49 -22 0 0z"/>
  </g>
</svg> 